<?xml version="1.0" encoding="UTF-8"?><svg xmlns="http://www.w3.org/2000/svg" xmlns:xlink="http://www.w3.org/1999/xlink" fill-opacity="1" color-rendering="auto" color-interpolation="auto" text-rendering="auto" stroke="black" stroke-linecap="square" width="711" stroke-miterlimit="10" shape-rendering="auto" stroke-opacity="1" fill="black" stroke-dasharray="none" font-weight="normal" stroke-width="1" height="861" font-family="'Dialog'" font-style="normal" stroke-linejoin="miter" font-size="12px" stroke-dashoffset="0" image-rendering="auto">
  <!--Generated by ySVG 2.6-->
  <defs id="genericDefs"/>
  <g>
    <g fill="white" text-rendering="geometricPrecision" shape-rendering="geometricPrecision" transform="translate(15,890)" stroke="white">
      <rect x="-15" width="711" height="861" y="-890" clip-path="url(#clipPath2)" stroke="none"/>
    </g>
    <g text-rendering="geometricPrecision" shape-rendering="geometricPrecision" transform="matrix(1.4743,0,0,1.4523,324.9017,90.6472)">
      <g clip-path="url(#clipPath3)">
        <svg xmlns:svg="http://www.w3.org/2000/svg" xmlns:sodipodi="http://sodipodi.sourceforge.net/DTD/sodipodi-0.dtd" xmlns:inkscape="http://www.inkscape.org/namespaces/inkscape" xmlns:dc="http://purl.org/dc/elements/1.1/" xmlns:cc="http://web.resource.org/cc/" xmlns:rdf="http://www.w3.org/1999/02/22-rdf-syntax-ns#" opacity="1" writing-mode="lr-tb" stop-color="rgb(0, 0, 0)" shape-rendering="auto" glyph-orientation-horizontal="0deg" color-profile="auto" lighting-color="rgb(255, 255, 255)" color="rgb(0, 0, 0)" font-weight="400" alignment-baseline="auto" font-style="normal" version="1.0" color-interpolation-filters="linearrgb" text-anchor="start" stroke-linecap="butt" color-interpolation="srgb" font-variant="normal" word-spacing="normal" fill-opacity="1" text-rendering="auto" clip-path="none" text-decoration="none" letter-spacing="normal" glyph-orientation-vertical="auto" display="inline" font-size-adjust="none" overflow="hidden" fill="rgb(0, 0, 0)" font-stretch="normal" stroke-dasharray="none" inkscape:version="0.45.1" id="svg1.svg2" stroke-miterlimit="4" stop-opacity="1" color-rendering="auto" font-size="12" sodipodi:docbase="C:\Daten\alberts\projects\yfx" pointer-events="visiblepainted" mask="none" direction="ltr" baseline-shift="baseline" sodipodi:docname="uml_actor.svg" enable-background="accumulate" fill-rule="nonzero" image-rendering="auto" stroke-dashoffset="0" inkscape:output_extension="org.inkscape.output.svg.inkscape" marker-end="none" width="41" clip="auto" cursor="auto" stroke="none" filter="none" visibility="visible" kerning="auto" stroke-width="1" font-family="&quot;Arial&quot;,&quot;Helvetica&quot;,sans-serif" flood-opacity="1" clip-rule="nonzero" src="none" height="68.997391" unicode-bidi="normal" sodipodi:version="0.32" stroke-linejoin="miter" stroke-opacity="1" flood-color="rgb(0, 0, 0)" dominant-baseline="auto" marker-start="none" marker-mid="none">
            
          <defs id="svg1.defs4">
            <clipPath clipPathUnits="userSpaceOnUse" id="clipPath1">
              <path d="M0 0 L711 0 L711 861 L0 861 L0 0 Z"/>
            </clipPath>
            <clipPath clipPathUnits="userSpaceOnUse" id="clipPath2">
              <path d="M-15 -890 L696 -890 L696 -29 L-15 -29 L-15 -890 Z"/>
            </clipPath>
            <clipPath clipPathUnits="userSpaceOnUse" id="clipPath3">
              <path d="M-220.3757 -62.416 L261.8844 -62.416 L261.8844 530.4333 L-220.3757 530.4333 L-220.3757 -62.416 Z"/>
            </clipPath>
            <clipPath clipPathUnits="userSpaceOnUse" id="clipPath4">
              <path d="M-220.3757 -319.937 L261.8844 -319.937 L261.8844 272.9123 L-220.3757 272.9123 L-220.3757 -319.937 Z"/>
            </clipPath>
            <clipPath clipPathUnits="userSpaceOnUse" id="clipPath5">
              <path d="M-59.7919 -513.0778 L422.4683 -513.0778 L422.4683 79.7715 L-59.7919 79.7715 L-59.7919 -513.0778 Z"/>
            </clipPath>
          </defs>
            
  
          <metadata id="svg1.metadata7">
    
  </metadata>
            
          <g inkscape:groupmode="layer" id="svg1.layer1" transform="translate(-29.5,-42.959476)" inkscape:label="Ebene 1">
                
            <a id="svg1.a3142" transform="matrix(1.0873906,0,0,1,-4.4741999,0)">
                    
              <path transform="translate(11.586889,5.2908993)" style="fill:none;fill-rule:evenodd;stroke:#000000;stroke-width:1px;stroke-linecap:butt;stroke-linejoin:miter;stroke-opacity:1" sodipodi:cx="38.509369" sodipodi:cy="47.36993" sodipodi:rx="8.5197716" id="svg1.path2160" d="M 47.02914 47.36993 A 8.5197716 9.2013531 0 1 1  29.989597,47.36993 A 8.5197716 9.2013531 0 1 1  47.02914 47.36993 z" sodipodi:ry="9.2013531" sodipodi:type="arc"/>
                  
            </a>
                
            <path style="fill:none" sodipodi:cx="43.962021" sodipodi:cy="48.392303" d="M 47.71072 48.392303 A 3.7486994 0 0 1 1  40.213321,48.392303 A 3.7486994 0 0 1 1  47.71072 48.392303 z" id="svg1.path3134" sodipodi:rx="3.7486994" sodipodi:ry="0" sodipodi:type="arc"/>
                
            <path style="fill:none;fill-rule:evenodd;stroke:#000000;stroke-width:1.24319649px;stroke-linecap:butt;stroke-linejoin:miter;stroke-opacity:1" d="M 50,61.33709 C 50,91.363211 50,92.247838 50,92.247838" id="svg1.path3136"/>
                
            <path style="fill:none;fill-rule:evenodd;stroke:#000000;stroke-width:1px;stroke-linecap:butt;stroke-linejoin:miter;stroke-opacity:1" d="M 69.760668,72.362183 C 69.760668,72.362183 69.760668,72.362183 50.239332,72.362183 C 30.239332,72.362183 30.239332,72.362183 30.239332,72.362183 L 30.239332,72.362183" id="svg1.path3138"/>
                
            <path style="fill:none;fill-rule:evenodd;stroke:#000000;stroke-width:1px;stroke-linecap:butt;stroke-linejoin:miter;stroke-opacity:1" d="M 30,111.45687 C 30,111.45687 30,111.45687 50,92.013532 C 70,111.45687 70,111.45687 70,111.45687" id="svg1.path3140"/>
              
          </g>
          
        </svg>
      </g>
    </g>
    <g font-size="13px" stroke-linecap="butt" transform="matrix(1,0,0,1,15,890)" text-rendering="geometricPrecision" font-family="sans-serif" shape-rendering="geometricPrecision" stroke-miterlimit="1.45">
      <text x="297.2244" xml:space="preserve" y="-744.2461" clip-path="url(#clipPath2)" stroke="none">Пользователь</text>
    </g>
    <g font-size="13px" stroke-linecap="butt" transform="matrix(1,0,0,1,15,890)" text-rendering="geometricPrecision" font-family="sans-serif" shape-rendering="geometricPrecision" stroke-miterlimit="1.45">
      <text x="22.2964" xml:space="preserve" y="-666.6724" clip-path="url(#clipPath2)" stroke="none">Добавить новое лекарство</text>
      <text x="49.0391" xml:space="preserve" y="-650.7461" clip-path="url(#clipPath2)" stroke="none">в список лекарств</text>
      <text x="67.9995" xml:space="preserve" y="-634.8198" clip-path="url(#clipPath2)" stroke="none">для приема</text>
      <ellipse rx="103.375" fill="none" ry="31.75" clip-path="url(#clipPath2)" cx="103.375" cy="-655.8528"/>
      <text x="15.1362" xml:space="preserve" y="-752.2092" clip-path="url(#clipPath2)" stroke="none">Удалить лекарство из списка</text>
      <text x="39.032" xml:space="preserve" y="-736.283" clip-path="url(#clipPath2)" stroke="none">лекарств для приема</text>
      <ellipse rx="103.375" fill="none" ry="31.75" clip-path="url(#clipPath2)" cx="103.375" cy="-749.3528"/>
      <text x="21.0459" xml:space="preserve" y="-565.2092" clip-path="url(#clipPath2)" stroke="none">Установить напоминание о</text>
      <text x="48.3281" xml:space="preserve" y="-549.283" clip-path="url(#clipPath2)" stroke="none">приеме лекарства</text>
      <ellipse rx="103.375" fill="none" ry="31.75" clip-path="url(#clipPath2)" cx="103.375" cy="-562.3528"/>
      <text x="33.7825" xml:space="preserve" y="-845.7092" clip-path="url(#clipPath2)" stroke="none">Подтвердить/отменить</text>
      <text x="51.9431" xml:space="preserve" y="-829.783" clip-path="url(#clipPath2)" stroke="none">прием лекарства</text>
      <ellipse rx="103.375" fill="none" ry="31.75" clip-path="url(#clipPath2)" cx="103.375" cy="-842.8528"/>
    </g>
    <g text-rendering="geometricPrecision" shape-rendering="geometricPrecision" transform="matrix(1.4743,0,0,1.4523,324.9017,464.6472)">
      <g clip-path="url(#clipPath4)">
        <svg xmlns:svg="http://www.w3.org/2000/svg" xmlns:sodipodi="http://sodipodi.sourceforge.net/DTD/sodipodi-0.dtd" xmlns:inkscape="http://www.inkscape.org/namespaces/inkscape" xmlns:dc="http://purl.org/dc/elements/1.1/" xmlns:cc="http://web.resource.org/cc/" xmlns:rdf="http://www.w3.org/1999/02/22-rdf-syntax-ns#" opacity="1" writing-mode="lr-tb" stop-color="rgb(0, 0, 0)" shape-rendering="auto" glyph-orientation-horizontal="0deg" color-profile="auto" lighting-color="rgb(255, 255, 255)" color="rgb(0, 0, 0)" font-weight="400" alignment-baseline="auto" font-style="normal" version="1.0" color-interpolation-filters="linearrgb" text-anchor="start" stroke-linecap="butt" color-interpolation="srgb" font-variant="normal" word-spacing="normal" fill-opacity="1" text-rendering="auto" clip-path="none" text-decoration="none" letter-spacing="normal" glyph-orientation-vertical="auto" display="inline" font-size-adjust="none" overflow="hidden" fill="rgb(0, 0, 0)" font-stretch="normal" stroke-dasharray="none" inkscape:version="0.45.1" id="svg2.svg2" stroke-miterlimit="4" stop-opacity="1" color-rendering="auto" font-size="12" sodipodi:docbase="C:\Daten\alberts\projects\yfx" pointer-events="visiblepainted" mask="none" direction="ltr" baseline-shift="baseline" sodipodi:docname="uml_actor.svg" enable-background="accumulate" fill-rule="nonzero" image-rendering="auto" stroke-dashoffset="0" inkscape:output_extension="org.inkscape.output.svg.inkscape" marker-end="none" width="41" clip="auto" cursor="auto" stroke="none" filter="none" visibility="visible" kerning="auto" stroke-width="1" font-family="&quot;Arial&quot;,&quot;Helvetica&quot;,sans-serif" flood-opacity="1" clip-rule="nonzero" src="none" height="68.997391" unicode-bidi="normal" sodipodi:version="0.32" stroke-linejoin="miter" stroke-opacity="1" flood-color="rgb(0, 0, 0)" dominant-baseline="auto" marker-start="none" marker-mid="none">
            
          <defs id="svg2.defs4"/>
            
  
          <metadata id="svg2.metadata7">
    
  </metadata>
            
          <g inkscape:groupmode="layer" id="svg2.layer1" transform="translate(-29.5,-42.959476)" inkscape:label="Ebene 1">
                
            <a id="svg2.a3142" transform="matrix(1.0873906,0,0,1,-4.4741999,0)">
                    
              <path transform="translate(11.586889,5.2908993)" style="fill:none;fill-rule:evenodd;stroke:#000000;stroke-width:1px;stroke-linecap:butt;stroke-linejoin:miter;stroke-opacity:1" sodipodi:cx="38.509369" sodipodi:cy="47.36993" sodipodi:rx="8.5197716" id="svg2.path2160" d="M 47.02914 47.36993 A 8.5197716 9.2013531 0 1 1  29.989597,47.36993 A 8.5197716 9.2013531 0 1 1  47.02914 47.36993 z" sodipodi:ry="9.2013531" sodipodi:type="arc"/>
                  
            </a>
                
            <path style="fill:none" sodipodi:cx="43.962021" sodipodi:cy="48.392303" d="M 47.71072 48.392303 A 3.7486994 0 0 1 1  40.213321,48.392303 A 3.7486994 0 0 1 1  47.71072 48.392303 z" id="svg2.path3134" sodipodi:rx="3.7486994" sodipodi:ry="0" sodipodi:type="arc"/>
                
            <path style="fill:none;fill-rule:evenodd;stroke:#000000;stroke-width:1.24319649px;stroke-linecap:butt;stroke-linejoin:miter;stroke-opacity:1" d="M 50,61.33709 C 50,91.363211 50,92.247838 50,92.247838" id="svg2.path3136"/>
                
            <path style="fill:none;fill-rule:evenodd;stroke:#000000;stroke-width:1px;stroke-linecap:butt;stroke-linejoin:miter;stroke-opacity:1" d="M 69.760668,72.362183 C 69.760668,72.362183 69.760668,72.362183 50.239332,72.362183 C 30.239332,72.362183 30.239332,72.362183 30.239332,72.362183 L 30.239332,72.362183" id="svg2.path3138"/>
                
            <path style="fill:none;fill-rule:evenodd;stroke:#000000;stroke-width:1px;stroke-linecap:butt;stroke-linejoin:miter;stroke-opacity:1" d="M 30,111.45687 C 30,111.45687 30,111.45687 50,92.013532 C 70,111.45687 70,111.45687 70,111.45687" id="svg2.path3140"/>
              
          </g>
          
        </svg>
      </g>
    </g>
    <g font-size="13px" stroke-linecap="butt" transform="matrix(1,0,0,1,15,890)" text-rendering="geometricPrecision" font-family="sans-serif" shape-rendering="geometricPrecision" stroke-miterlimit="1.45">
      <text x="293.0127" xml:space="preserve" y="-370.2461" clip-path="url(#clipPath2)" stroke="none">Администратор</text>
      <text x="39.8477" xml:space="preserve" y="-284.7092" clip-path="url(#clipPath2)" stroke="none">Просмотреть список </text>
      <text x="57.7671" xml:space="preserve" y="-268.783" clip-path="url(#clipPath2)" stroke="none">пользователей</text>
      <ellipse rx="103.375" fill="none" ry="31.75" clip-path="url(#clipPath2)" cx="103.375" cy="-281.8528"/>
      <text x="34.3633" xml:space="preserve" y="-370.2461" clip-path="url(#clipPath2)" stroke="none">Удалить пользователя</text>
      <ellipse rx="103.375" fill="none" ry="31.75" clip-path="url(#clipPath2)" cx="103.375" cy="-375.3528"/>
      <text x="39.8477" xml:space="preserve" y="-479.6724" clip-path="url(#clipPath2)" stroke="none">Просмотреть список </text>
      <text x="59.0334" xml:space="preserve" y="-463.7461" clip-path="url(#clipPath2)" stroke="none">лекарств всех </text>
      <text x="57.7671" xml:space="preserve" y="-447.8198" clip-path="url(#clipPath2)" stroke="none">пользователей</text>
      <ellipse rx="103.375" fill="none" ry="31.75" clip-path="url(#clipPath2)" cx="103.375" cy="-468.8528"/>
      <text x="506.7239" xml:space="preserve" y="-752.2092" clip-path="url(#clipPath2)" stroke="none">Редактировать данные</text>
      <text x="548.9897" xml:space="preserve" y="-736.283" clip-path="url(#clipPath2)" stroke="none">о приеме</text>
      <ellipse rx="103.375" fill="none" ry="31.75" clip-path="url(#clipPath2)" cx="576.875" cy="-749.3528"/>
    </g>
    <g text-rendering="geometricPrecision" shape-rendering="geometricPrecision" transform="matrix(1.4743,0,0,1.4523,88.1517,745.1472)">
      <g clip-path="url(#clipPath5)">
        <svg xmlns:svg="http://www.w3.org/2000/svg" xmlns:sodipodi="http://sodipodi.sourceforge.net/DTD/sodipodi-0.dtd" xmlns:inkscape="http://www.inkscape.org/namespaces/inkscape" xmlns:dc="http://purl.org/dc/elements/1.1/" xmlns:cc="http://web.resource.org/cc/" xmlns:rdf="http://www.w3.org/1999/02/22-rdf-syntax-ns#" opacity="1" writing-mode="lr-tb" stop-color="rgb(0, 0, 0)" shape-rendering="auto" glyph-orientation-horizontal="0deg" color-profile="auto" lighting-color="rgb(255, 255, 255)" color="rgb(0, 0, 0)" font-weight="400" alignment-baseline="auto" font-style="normal" version="1.0" color-interpolation-filters="linearrgb" text-anchor="start" stroke-linecap="butt" color-interpolation="srgb" font-variant="normal" word-spacing="normal" fill-opacity="1" text-rendering="auto" clip-path="none" text-decoration="none" letter-spacing="normal" glyph-orientation-vertical="auto" display="inline" font-size-adjust="none" overflow="hidden" fill="rgb(0, 0, 0)" font-stretch="normal" stroke-dasharray="none" inkscape:version="0.45.1" id="svg3.svg2" stroke-miterlimit="4" stop-opacity="1" color-rendering="auto" font-size="12" sodipodi:docbase="C:\Daten\alberts\projects\yfx" pointer-events="visiblepainted" mask="none" direction="ltr" baseline-shift="baseline" sodipodi:docname="uml_actor.svg" enable-background="accumulate" fill-rule="nonzero" image-rendering="auto" stroke-dashoffset="0" inkscape:output_extension="org.inkscape.output.svg.inkscape" marker-end="none" width="41" clip="auto" cursor="auto" stroke="none" filter="none" visibility="visible" kerning="auto" stroke-width="1" font-family="&quot;Arial&quot;,&quot;Helvetica&quot;,sans-serif" flood-opacity="1" clip-rule="nonzero" src="none" height="68.997391" unicode-bidi="normal" sodipodi:version="0.32" stroke-linejoin="miter" stroke-opacity="1" flood-color="rgb(0, 0, 0)" dominant-baseline="auto" marker-start="none" marker-mid="none">
            
          <defs id="svg3.defs4"/>
            
  
          <metadata id="svg3.metadata7">
    
  </metadata>
            
          <g inkscape:groupmode="layer" id="svg3.layer1" transform="translate(-29.5,-42.959476)" inkscape:label="Ebene 1">
                
            <a id="svg3.a3142" transform="matrix(1.0873906,0,0,1,-4.4741999,0)">
                    
              <path transform="translate(11.586889,5.2908993)" style="fill:none;fill-rule:evenodd;stroke:#000000;stroke-width:1px;stroke-linecap:butt;stroke-linejoin:miter;stroke-opacity:1" sodipodi:cx="38.509369" sodipodi:cy="47.36993" sodipodi:rx="8.5197716" id="svg3.path2160" d="M 47.02914 47.36993 A 8.5197716 9.2013531 0 1 1  29.989597,47.36993 A 8.5197716 9.2013531 0 1 1  47.02914 47.36993 z" sodipodi:ry="9.2013531" sodipodi:type="arc"/>
                  
            </a>
                
            <path style="fill:none" sodipodi:cx="43.962021" sodipodi:cy="48.392303" d="M 47.71072 48.392303 A 3.7486994 0 0 1 1  40.213321,48.392303 A 3.7486994 0 0 1 1  47.71072 48.392303 z" id="svg3.path3134" sodipodi:rx="3.7486994" sodipodi:ry="0" sodipodi:type="arc"/>
                
            <path style="fill:none;fill-rule:evenodd;stroke:#000000;stroke-width:1.24319649px;stroke-linecap:butt;stroke-linejoin:miter;stroke-opacity:1" d="M 50,61.33709 C 50,91.363211 50,92.247838 50,92.247838" id="svg3.path3136"/>
                
            <path style="fill:none;fill-rule:evenodd;stroke:#000000;stroke-width:1px;stroke-linecap:butt;stroke-linejoin:miter;stroke-opacity:1" d="M 69.760668,72.362183 C 69.760668,72.362183 69.760668,72.362183 50.239332,72.362183 C 30.239332,72.362183 30.239332,72.362183 30.239332,72.362183 L 30.239332,72.362183" id="svg3.path3138"/>
                
            <path style="fill:none;fill-rule:evenodd;stroke:#000000;stroke-width:1px;stroke-linecap:butt;stroke-linejoin:miter;stroke-opacity:1" d="M 30,111.45687 C 30,111.45687 30,111.45687 50,92.013532 C 70,111.45687 70,111.45687 70,111.45687" id="svg3.path3140"/>
              
          </g>
          
        </svg>
      </g>
    </g>
    <g font-size="13px" stroke-linecap="butt" transform="matrix(1,0,0,1,15,890)" text-rendering="geometricPrecision" font-family="sans-serif" shape-rendering="geometricPrecision" stroke-miterlimit="1.45">
      <text x="43.2087" xml:space="preserve" y="-97.7092" clip-path="url(#clipPath2)" stroke="none">Неавторизованный </text>
      <text x="61.6265" xml:space="preserve" y="-81.783" clip-path="url(#clipPath2)" stroke="none">пользователь</text>
      <text x="278.448" xml:space="preserve" y="-89.7461" clip-path="url(#clipPath2)" stroke="none">Зарегистрироваться</text>
      <ellipse rx="103.375" fill="none" ry="31.75" clip-path="url(#clipPath2)" cx="340.125" cy="-94.8528"/>
      <text x="528.4519" xml:space="preserve" y="-89.7461" clip-path="url(#clipPath2)" stroke="none">Авторизоваться</text>
      <ellipse rx="103.375" fill="none" ry="31.75" clip-path="url(#clipPath2)" cx="576.875" cy="-94.8528"/>
      <text x="551.6208" xml:space="preserve" y="-845.7092" clip-path="url(#clipPath2)" stroke="none">Войти в </text>
      <text x="552.4333" xml:space="preserve" y="-829.783" clip-path="url(#clipPath2)" stroke="none">систему</text>
      <ellipse rx="103.375" fill="none" ry="31.75" clip-path="url(#clipPath2)" cx="576.875" cy="-842.8528"/>
      <text x="530.8418" xml:space="preserve" y="-378.2092" clip-path="url(#clipPath2)" stroke="none">Сформировать</text>
      <text x="530.6133" xml:space="preserve" y="-362.283" clip-path="url(#clipPath2)" stroke="none">отчет о приеме</text>
      <ellipse rx="103.375" fill="none" ry="31.75" clip-path="url(#clipPath2)" cx="576.875" cy="-375.3528"/>
      <text x="513.0144" xml:space="preserve" y="-276.7461" clip-path="url(#clipPath2)" stroke="none">Пройти курс лечения</text>
      <ellipse rx="103.375" fill="none" ry="31.75" clip-path="url(#clipPath2)" cx="576.875" cy="-281.8528"/>
      <text x="532.6731" xml:space="preserve" y="-199.1724" clip-path="url(#clipPath2)" stroke="none">Выбрать точку</text>
      <text x="552.6047" xml:space="preserve" y="-183.2461" clip-path="url(#clipPath2)" stroke="none">приема </text>
      <text x="536.4214" xml:space="preserve" y="-167.3198" clip-path="url(#clipPath2)" stroke="none">уведомлений</text>
      <ellipse rx="103.375" fill="none" ry="31.75" clip-path="url(#clipPath2)" cx="576.875" cy="-188.3528"/>
      <path fill="none" d="M192.9062 -671.7278 L236.75 -671.7278 L236.75 -749.3528 L310.0892 -749.3528" clip-path="url(#clipPath2)"/>
      <path fill="none" d="M206.75 -749.3528 L310.0998 -749.3528" clip-path="url(#clipPath2)"/>
      <path fill="none" d="M192.9062 -578.2278 L236.75 -578.2278 L236.75 -749.3528 L310.0892 -749.3528" clip-path="url(#clipPath2)"/>
      <path fill="none" d="M192.9062 -858.7278 L236.75 -858.7278 L236.75 -749.3528 L310.0892 -749.3528" clip-path="url(#clipPath2)"/>
      <path fill="none" d="M192.9062 -639.9778 L221.75 -639.9778 L221.75 -375.3528 L310.0818 -375.3528" clip-path="url(#clipPath2)"/>
      <path fill="none" d="M103.375 -717.6028 L103.375 -702.6028 L221.75 -702.6028 L221.75 -375.3528 L310.0818 -375.3528" clip-path="url(#clipPath2)"/>
      <path fill="none" d="M192.9062 -546.4778 L221.75 -546.4778 L221.75 -375.3528 L310.0818 -375.3528" clip-path="url(#clipPath2)"/>
      <path fill="none" d="M192.9062 -826.9778 L221.75 -826.9778 L221.75 -375.3528 L310.0818 -375.3528" clip-path="url(#clipPath2)"/>
      <path fill="none" d="M206.75 -281.8528 L221.75 -281.8528 L221.75 -375.3528 L310.0818 -375.3528" clip-path="url(#clipPath2)"/>
      <path fill="none" d="M206.75 -375.3528 L310.0998 -375.3528" clip-path="url(#clipPath2)"/>
      <path fill="none" d="M206.75 -468.8528 L221.75 -468.8528 L221.75 -375.3528 L310.0818 -375.3528" clip-path="url(#clipPath2)"/>
      <path fill="none" d="M370.1502 -749.3528 L473.5 -749.3528" clip-path="url(#clipPath2)"/>
      <path fill="none" d="M340.125 -425.3815 L340.125 -542.8895 L419.2373 -542.8895 L419.2373 -749.3528 L473.5 -749.3528" clip-path="url(#clipPath2)"/>
      <path fill="none" d="M133.4002 -94.8528 L236.75 -94.8528" clip-path="url(#clipPath2)"/>
      <path fill="none" stroke-dasharray="6,2" d="M443.5 -94.8528 L465.5 -94.8528" clip-path="url(#clipPath2)"/>
      <path stroke-dasharray="6,2" d="M473.5 -94.8528 L461.5 -99.8528 L464.5 -94.8528 L461.5 -89.8528 Z" clip-path="url(#clipPath2)" stroke="none"/>
      <path fill="none" d="M340.125 -799.3953 L340.125 -842.8528 L473.5 -842.8528" clip-path="url(#clipPath2)"/>
      <path fill="none" d="M370.1636 -729.3528 L449.2373 -729.3528 L449.2373 -375.3528 L473.5 -375.3528" clip-path="url(#clipPath2)"/>
      <path fill="none" d="M370.1502 -375.3528 L473.5 -375.3528" clip-path="url(#clipPath2)"/>
      <path fill="none" d="M370.1563 -709.3528 L434.2373 -709.3528 L434.2373 -281.8528 L473.5 -281.8528" clip-path="url(#clipPath2)"/>
      <path fill="none" d="M370.1563 -342.0194 L434.2373 -342.0194 L434.2373 -281.8528 L473.5 -281.8528" clip-path="url(#clipPath2)"/>
      <path fill="none" d="M340.125 -699.3182 L340.125 -557.8895 L404.2373 -557.8895 L404.2373 -188.3528 L473.5 -188.3528" clip-path="url(#clipPath2)"/>
      <path fill="none" d="M340.125 -325.3193 L340.125 -188.3528 L473.5 -188.3528" clip-path="url(#clipPath2)"/>
    </g>
  </g>
</svg>
